<svg xmlns="http://www.w3.org/2000/svg" xmlns:xlink="http://www.w3.org/1999/xlink" viewBox="0 0 158 43.56"><defs><style>.cls-1{fill:url(#linear-gradient);}.cls-2{fill:url(#linear-gradient-2);}.cls-3{fill:url(#linear-gradient-3);}.cls-4{fill:url(#linear-gradient-4);}.cls-5{fill:url(#linear-gradient-5);}.cls-6{fill:url(#linear-gradient-6);}.cls-7{fill:url(#linear-gradient-7);}.cls-8{fill:url(#linear-gradient-10);}.cls-9{fill:url(#linear-gradient-11);}.cls-10{fill:url(#linear-gradient-12);}.cls-11{fill:url(#linear-gradient-13);}.cls-12{fill:url(#linear-gradient-14);}.cls-13{fill:url(#linear-gradient-15);}.cls-14{fill:url(#linear-gradient-16);}.cls-15{fill:url(#linear-gradient-17);}</style><linearGradient id="linear-gradient" y1="11.49" x2="11.29" y2="11.49" gradientUnits="userSpaceOnUse"><stop offset="0" stop-color="#2ad055"/><stop offset="1" stop-color="#0a2"/></linearGradient><linearGradient id="linear-gradient-2" x1="7.51" y1="14.36" x2="16.79" y2="14.36" xlink:href="#linear-gradient"/><linearGradient id="linear-gradient-3" x1="13.03" y1="17.23" x2="24.5" y2="17.23" xlink:href="#linear-gradient"/><linearGradient id="linear-gradient-4" x1="20.54" y1="17.31" x2="35.54" y2="17.31" xlink:href="#linear-gradient"/><linearGradient id="linear-gradient-5" x1="32.32" y1="18.05" x2="118.14" y2="18.05" gradientUnits="userSpaceOnUse"><stop offset="0" stop-color="#2ad0ff"/><stop offset="1" stop-color="#0af"/></linearGradient><linearGradient id="linear-gradient-6" x1="32.32" y1="18.06" x2="118.14" y2="18.06" xlink:href="#linear-gradient-5"/><linearGradient id="linear-gradient-7" x1="32.32" y1="18.14" x2="118.14" y2="18.14" xlink:href="#linear-gradient-5"/><linearGradient id="linear-gradient-10" x1="160.03" y1="82.36" x2="43.51" y2="36.89" xlink:href="#linear-gradient"/><linearGradient id="linear-gradient-11" x1="161.86" y1="77.66" x2="45.34" y2="32.19" xlink:href="#linear-gradient"/><linearGradient id="linear-gradient-12" x1="164.23" y1="71.59" x2="47.71" y2="26.12" xlink:href="#linear-gradient"/><linearGradient id="linear-gradient-13" x1="166.96" y1="64.6" x2="50.43" y2="19.13" xlink:href="#linear-gradient"/><linearGradient id="linear-gradient-14" x1="169.23" y1="58.78" x2="52.71" y2="13.31" xlink:href="#linear-gradient"/><linearGradient id="linear-gradient-15" x1="170.78" y1="54.82" x2="54.25" y2="9.34" xlink:href="#linear-gradient"/><linearGradient id="linear-gradient-16" x1="172.76" y1="49.74" x2="56.24" y2="4.27" xlink:href="#linear-gradient"/><linearGradient id="linear-gradient-17" x1="174.47" y1="45.35" x2="57.95" y2="-0.12" xlink:href="#linear-gradient"/></defs><title>logo_primary</title><g id="Layer_2" data-name="Layer 2"><g id="Layer_1-2" data-name="Layer 1"><polygon class="cls-1" points="0 0 7.51 0 11.29 11.63 7.51 22.97 0 0"/><polygon class="cls-2" points="15.05 22.97 7.51 22.97 13.03 5.74 16.79 17.21 15.05 22.97"/><polygon class="cls-3" points="13.03 5.74 20.54 5.74 24.5 17.9 20.54 28.71 13.03 5.74"/><polygon class="cls-4" points="20.54 28.71 28.25 5.91 35.54 5.91 28.04 28.71 20.54 28.71"/><path class="cls-5" d="M42.77,22.56H37l-1,2.77H33l5.23-14.56h3.4l5.23,14.56H43.73ZM42,20.23l-2.1-6.08-2.1,6.08Z"/><path class="cls-6" d="M56.27,25.34l-3.21-5.67H51.68v5.67H48.77V10.79h5.46a6.37,6.37,0,0,1,2.87.59A4.15,4.15,0,0,1,58.88,13a4.38,4.38,0,0,1,.59,2.26,4.33,4.33,0,0,1-.83,2.59,4.28,4.28,0,0,1-2.48,1.59l3.48,5.9Zm-4.58-7.85h2.44a2.43,2.43,0,0,0,1.77-.57,2.13,2.13,0,0,0,.58-1.59,2,2,0,0,0-.58-1.55,2.5,2.5,0,0,0-1.77-.55H51.68Z"/><path class="cls-7" d="M65,10.79v9a3.08,3.08,0,0,0,.77,2.26,2.91,2.91,0,0,0,2.17.78,2.94,2.94,0,0,0,2.19-.78,3.09,3.09,0,0,0,.77-2.26v-9h2.94v9a5.8,5.8,0,0,1-.8,3.14,5.09,5.09,0,0,1-2.15,1.93,6.81,6.81,0,0,1-3,.65,6.63,6.63,0,0,1-2.95-.65,4.91,4.91,0,0,1-2.09-1.93,6,6,0,0,1-.77-3.14v-9Z"/><path class="cls-5" d="M89.08,25.34H86.16l-6.6-10v10H76.64V10.77h2.92l6.6,10v-10h2.92Z"/><path class="cls-6" d="M100.16,25.34l-5.29-6.48v6.48H92V10.79h2.92v6.52l5.29-6.52h3.52l-6,7.21,6.17,7.33Z"/><path class="cls-8" d="M38.69,37.22V34.44h7.17V41a9,9,0,0,1-3,1.78,11,11,0,0,1-4,.77,9,9,0,0,1-4.51-1.08,6.9,6.9,0,0,1-2.89-3.1,10,10,0,0,1-1-4.39,9.49,9.49,0,0,1,1.08-4.58,7.27,7.27,0,0,1,3.16-3.07,8.53,8.53,0,0,1,3.95-.82,7.88,7.88,0,0,1,4.79,1.29,5.81,5.81,0,0,1,2.22,3.56L42.34,32A3.48,3.48,0,0,0,41,30.06a4,4,0,0,0-2.4-.7,4.51,4.51,0,0,0-3.47,1.38,5.83,5.83,0,0,0-1.29,4.1,6.45,6.45,0,0,0,1.3,4.4,4.35,4.35,0,0,0,3.42,1.47,5.71,5.71,0,0,0,2.09-.41,7.19,7.19,0,0,0,1.81-1V37.22Z"/><path class="cls-9" d="M47.79,43.28V26.8h7a12,12,0,0,1,3.84.44,3.79,3.79,0,0,1,1.92,1.58,4.75,4.75,0,0,1,.72,2.6,4.4,4.4,0,0,1-1.09,3.06A5.24,5.24,0,0,1,56.92,36a7.79,7.79,0,0,1,1.78,1.38,18.82,18.82,0,0,1,1.89,2.68l2,3.21h-4l-2.41-3.59a23.3,23.3,0,0,0-1.75-2.42,2.56,2.56,0,0,0-1-.69,5.49,5.49,0,0,0-1.67-.18h-.67v6.88Zm3.33-9.51h2.46a12.73,12.73,0,0,0,3-.2,1.79,1.79,0,0,0,.93-.7,2.15,2.15,0,0,0,.34-1.24,2,2,0,0,0-.44-1.34,2,2,0,0,0-1.25-.65q-.4-.06-2.43-.06h-2.6Z"/><path class="cls-10" d="M62.58,35.14a10.47,10.47,0,0,1,.75-4.23,7.76,7.76,0,0,1,1.53-2.26A6.42,6.42,0,0,1,67,27.17a9,9,0,0,1,3.55-.65,7.74,7.74,0,0,1,5.83,2.26,8.66,8.66,0,0,1,2.19,6.28,8.64,8.64,0,0,1-2.17,6.24,7.68,7.68,0,0,1-5.8,2.25,7.75,7.75,0,0,1-5.84-2.24A8.51,8.51,0,0,1,62.58,35.14ZM66,35a6.17,6.17,0,0,0,1.29,4.24,4.44,4.44,0,0,0,6.55,0A6.3,6.3,0,0,0,75.12,35a6.2,6.2,0,0,0-1.24-4.23,4.6,4.6,0,0,0-6.61,0A6.23,6.23,0,0,0,66,35Z"/><path class="cls-11" d="M82.35,43.28,78.41,26.8h3.41L84.3,38.12l3-11.32h4l2.89,11.51L96.69,26.8H100L96,43.28H92.51L89.23,31,86,43.28Z"/><path class="cls-12" d="M104.3,43.28V29.59H99.41V26.8h13.1v2.79h-4.88V43.28Z"/><path class="cls-13" d="M113.51,43.28V26.8h3.33v6.49h6.52V26.8h3.33V43.28h-3.33V36.07h-6.52v7.21Z"/><path class="cls-14" d="M129,43.28V26.8h12.22v2.79H132.3v3.65h8.27V36H132.3V40.5h9.21v2.78Z"/><path class="cls-15" d="M143.19,43.28V26.8h7a12,12,0,0,1,3.84.44,3.79,3.79,0,0,1,1.92,1.58,4.75,4.75,0,0,1,.72,2.6,4.4,4.4,0,0,1-1.09,3.06A5.24,5.24,0,0,1,152.31,36a7.79,7.79,0,0,1,1.78,1.38A18.82,18.82,0,0,1,156,40.06l2,3.21h-4l-2.41-3.59a23.3,23.3,0,0,0-1.75-2.42,2.56,2.56,0,0,0-1-.69,5.49,5.49,0,0,0-1.67-.18h-.67v6.88Zm3.33-9.51H149a12.73,12.73,0,0,0,3-.2,1.79,1.79,0,0,0,.93-.7,2.15,2.15,0,0,0,.34-1.24,2,2,0,0,0-.44-1.34,2,2,0,0,0-1.25-.65q-.4-.06-2.43-.06h-2.6Z"/></g></g></svg>